<?xml version="1.0" standalone="no"?><!DOCTYPE svg PUBLIC "-//W3C//DTD SVG 1.1//EN" "http://www.w3.org/Graphics/SVG/1.1/DTD/svg11.dtd"><svg t="1755071800192" class="icon" viewBox="0 0 2562 1024" version="1.1" xmlns="http://www.w3.org/2000/svg" p-id="8314" xmlns:xlink="http://www.w3.org/1999/xlink" width="120.09375" height="48"><path d="M812.434655 73.064593v103.59905H0v-103.59905h327.154895a73.88248 73.88248 0 0 1 25.081875-50.436379 79.335062 79.335062 0 0 1 106.325341 0 72.246706 72.246706 0 0 1 24.536617 50.436379z m0 647.766691v103.59905H500.546989v148.310219a49.618492 49.618492 0 0 1-14.721971 35.987039 50.709009 50.709009 0 0 1-36.804925 14.72197h-167.666884l-27.262908-103.59905H354.417802v-95.420178H0v-103.59905h376.228129l151.581768-76.336142H27.262908v-103.59905h717.559735a57.797365 57.797365 0 0 1 37.622813 10.905164 48.527976 48.527976 0 0 1 17.448261 25.627133 46.074314 46.074314 0 0 1-2.726291 29.989199 48.800605 48.800605 0 0 1-22.900842 23.991359L599.783973 720.831284z m-27.262908-281.353209a49.073234 49.073234 0 0 1-15.267228 36.532297 51.526896 51.526896 0 0 1-37.077555 14.72197h-654.309789A50.163751 50.163751 0 0 1 27.262908 439.478075V269.35753a51.526896 51.526896 0 0 1 13.631454-37.077555A49.073234 49.073234 0 0 1 77.426658 218.103263h654.30979a52.072154 52.072154 0 0 1 53.435299 51.254267z m-145.03867-118.866278H171.211061v66.521495h468.922016zM1208.292077 517.99525V235.551524h-151.581767v100.327501a52.072154 52.072154 0 0 1-52.344784 52.344783h-109.051631l-21.810326-103.59905h39.258587V27.262908h145.03867v104.689566h151.581768V0h145.03867v131.952474h318.430764v103.59905H1353.330747V517.99525h317.340248v103.59905H1353.330747v295.529921H1684.847707v103.59905H876.775117v-103.59905h331.51696V621.5943H893.132862V517.99525zM1815.709665 21.810326a74.155109 74.155109 0 0 1 54.525816 20.71981 69.793044 69.793044 0 0 1 21.810326 52.344783 71.428819 71.428819 0 0 1-21.810326 52.890042 73.609851 73.609851 0 0 1-54.525816 21.265068 70.338302 70.338302 0 0 1-52.344783-21.265068 72.519335 72.519335 0 0 1-20.71981-52.890042A70.88356 70.88356 0 0 1 1815.709665 21.810326z m0 420.939298A74.427739 74.427739 0 0 1 1890.955291 517.99525a71.428819 71.428819 0 0 1-21.810327 52.344783 73.064593 73.064593 0 0 1-54.525815 21.810326 69.793044 69.793044 0 0 1-52.344784-21.810326 72.519335 72.519335 0 0 1-19.629293-52.344783 74.155109 74.155109 0 0 1 20.71981-54.525816 69.793044 69.793044 0 0 1 52.344783-20.71981z m0 423.12033a73.609851 73.609851 0 0 1 54.525816 21.265068 69.793044 69.793044 0 0 1 21.810326 51.799525 74.427739 74.427739 0 0 1-76.336142 75.245626 69.793044 69.793044 0 0 1-52.344783-21.810326 74.155109 74.155109 0 0 1-20.71981-54.525816 71.701448 71.701448 0 0 1 73.064593-73.064593z m149.400735-725.193349l-21.810326-103.59905h467.831499V4.362065h145.03867v85.060273a50.163751 50.163751 0 0 1-51.254267 51.254267h-185.387773v150.491251H2562.713341v103.59905h-243.185138V545.258158h168.212141a49.073234 49.073234 0 0 1 35.71441 15.267228 51.254267 51.254267 0 0 1 15.267228 39.258587v374.047097a47.982718 47.982718 0 0 1-15.267228 35.44178 49.891121 49.891121 0 0 1-35.987039 14.72197H2005.459504a49.618492 49.618492 0 0 1-36.532297-15.267228 48.527976 48.527976 0 0 1-14.72197-35.441781V599.783973a51.799525 51.799525 0 0 1 14.72197-37.077554 49.073234 49.073234 0 0 1 36.532297-17.448261h169.030029v-150.491252h-242.094622v-103.59905h242.094622V140.676605zM2393.683312 649.947724H2099.243907v270.448046h294.439405z" p-id="8315" fill="#d81e06"></path></svg>